Coordinates
version=1
nRows=22
nColumns=24
inDegrees=yes

Units are S.I. units (second, meters, Newtons, ...)
Angles are in degrees.

endheader
time	pelvis_tilt	pelvis_list	pelvis_rotation	pelvis_tx	pelvis_ty	pelvis_tz	hip_flexion_r	hip_adduction_r	hip_rotation_r	knee_angle_r	ankle_angle_r	subtalar_angle_r	mtp_angle_r	hip_flexion_l	hip_adduction_l	hip_rotation_l	knee_angle_l	ankle_angle_l	subtalar_angle_l	mtp_angle_l	lumbar_extension	lumbar_bending	lumbar_rotation
      5.37500000	     32.56955540	     13.94248616	     11.92305691	      1.31451835	      0.65351522	     -0.22773002	    -13.89216284	    -12.42741312	    -20.90450232	     -0.30820064	     10.75374231	      7.14107579	      0.00000000	    -50.10725924	     -0.51696317	      6.71607144	    -23.89177622	     11.89654580	     16.39948532	      0.00000000	    -62.24120032	      1.06729955	    -14.03170478
      5.38000000	     32.73205816	     13.68088490	     12.07608976	      1.32138958	      0.65291695	     -0.22773263	    -13.60549986	    -12.15870424	    -19.84793851	     -1.88153779	     10.24357388	      6.44494124	      0.00000000	    -50.07421886	     -0.99227970	      6.59115542	    -25.20982050	     10.89923453	     16.33587475	      0.00000000	    -62.38186597	      1.58969093	    -13.85956712
      5.38500000	     32.89498566	     13.39701891	     12.30226329	      1.32827072	      0.65240539	     -0.22775643	    -13.32262437	    -11.82500889	    -18.86970818	     -3.56350827	      9.66633910	      5.70126141	      0.00000000	    -49.93999062	     -1.52172268	      6.47888040	    -26.66940024	      9.74839443	     16.11905947	      0.00000000	    -62.51933624	      2.17836484	    -13.68020308
      5.39000000	     33.04222790	     13.06087099	     12.47635073	      1.33517756	      0.65191703	     -0.22769987	    -12.95110133	    -11.43504463	    -17.82865380	     -5.38811071	      9.07238653	      4.91656268	      0.00000000	    -49.71228714	     -2.03279209	      6.26717122	    -28.22134936	      8.44905280	     15.84872304	      0.00000000	    -62.63507462	      2.74540149	    -13.44947511
      5.39500000	     33.22652165	     12.69484099	     12.74641543	      1.34216376	      0.65151074	     -0.22769572	    -12.66476156	    -10.95016119	    -16.99320256	     -7.23851882	      8.54306980	      4.21147879	      0.00000000	    -49.44296832	     -2.63585558	      6.07792479	    -29.86981457	      7.01080692	     15.35954064	      0.00000000	    -62.75761171	      3.40377039	    -13.22092157
      5.40000000	     33.28928890	     12.27372181	     12.72071179	      1.34908103	      0.65100957	     -0.22734030	    -12.03673639	    -10.49819579	    -15.79356184	     -9.29691892	      7.97462414	      3.36449437	      0.00000000	    -48.98131653	     -3.02818710	      5.58344456	    -31.57645917	      5.38842092	     15.01698412	      0.00000000	    -62.79881140	      3.79862670	    -12.87682347
      5.40500000	     33.37276100	     11.87182259	     12.81724802	      1.35606831	      0.65058826	     -0.22704664	    -11.52624338	    -10.00118885	    -14.85848407	    -11.31700883	      7.55421586	      2.65690875	      0.00000000	    -48.46950201	     -3.50668022	      5.11700762	    -33.35497891	      3.64468782	     14.40009860	      0.00000000	    -62.83887884	      4.27110398	    -12.56913234
      5.41000000	     33.58829965	     11.45865140	     13.07469622	      1.36311869	      0.65030398	     -0.22685839	    -11.30742011	     -9.39197130	    -14.32886555	    -13.18696101	      7.24972728	      2.16491030	      0.00000000	    -48.03004383	     -4.15162284	      4.75050707	    -35.18346871	      1.86335807	     13.55124380	      0.00000000	    -62.97014106	      4.89218164	    -12.35999632
      5.41500000	     33.58599999	     11.02558425	     12.99052234	      1.37017109	      0.64985697	     -0.22627708	    -10.65619028	     -8.87700714	    -13.31514457	    -15.24476607	      7.09216665	      1.44876822	      0.00000000	    -47.33546646	     -4.50964846	      4.10143085	    -37.01110315	     -0.10222590	     12.80576924	      0.00000000	    -62.91386506	      5.16316584	    -11.97734377
      5.42000000	     33.78831100	     10.60897844	     13.22599443	      1.37728175	      0.64965066	     -0.22599414	    -10.50097077	     -8.24110322	    -12.93192695	    -17.01095183	      7.06496823	      1.09264200	      0.00000000	    -46.79282646	     -5.15025820	      3.67265330	    -38.85707355	     -2.00577902	     11.73488583	      0.00000000	    -63.00292954	      5.72960012	    -11.76971563
      5.42500000	     33.83386174	     10.20792142	     13.22355619	      1.38437366	      0.64933574	     -0.22536680	    -10.09031699	     -7.69327154	    -12.34421844	    -18.83091434	      7.27708222	      0.60904751	      0.00000000	    -46.05616671	     -5.57760176	      3.06456401	    -40.70630840	     -3.97323997	     10.60506283	      0.00000000	    -62.96966436	      5.99032281	    -11.47319671
      5.43000000	     34.06141152	      9.77185749	     13.47948704	      1.39157503	      0.64925945	     -0.22499122	    -10.12326074	     -6.99502652	    -12.22466701	    -20.33320332	      7.56113202	      0.37310697	      0.00000000	    -45.47921073	     -6.29124177	      2.57807013	    -42.51080457	     -5.77740271	      9.36973441	      0.00000000	    -63.03831461	      6.52831043	    -11.28094419
      5.43500000	     34.26574192	      9.37197960	     13.65776499	      1.39871740	      0.64920890	     -0.22453029	    -10.16501117	     -6.35091095	    -12.09664710	    -21.75847648	      8.03626681	      0.12857689	      0.00000000	    -44.85595374	     -6.90172829	      2.10470203	    -44.28990488	     -7.48555987	      8.00573709	      0.00000000	    -63.09501341	      6.95107798	    -11.07329221
      5.44000000	     34.32765843	      9.04271206	     13.71041390	      1.40576568	      0.64911543	     -0.22395644	    -10.04785098	     -5.85602709	    -11.88380065	    -23.18693589	      8.75634373	     -0.01717979	      0.00000000	    -44.06106742	     -7.30946634	      1.62614291	    -46.05472988	     -9.04865111	      6.50725562	      0.00000000	    -63.04087740	      7.18280586	    -10.84114564
      5.44500000	     34.54509222	      8.61312752	     13.92186167	      1.41294257	      0.64923501	     -0.22350715	    -10.29005752	     -5.15296195	    -11.93951833	    -24.28595180	      9.44391240	     -0.13461148	      0.00000000	    -43.42481989	     -7.97926726	      1.16894607	    -47.73645167	    -10.29110519	      5.08408277	      0.00000000	    -63.06544318	      7.62454332	    -10.59559437
      5.45000000	     34.76383880	      8.24821761	     14.10546051	      1.42012483	      0.64942939	     -0.22298462	    -10.63040517	     -4.50751990	    -12.03435519	    -25.24165278	     10.35830851	     -0.22265381	      0.00000000	    -42.80113774	     -8.58011190	      0.74912095	    -49.34382612	    -11.24874136	      3.64072249	      0.00000000	    -63.08051069	      7.95569286	    -10.34228343
      5.45500000	     34.95615313	      7.92366563	     14.23195309	      1.42704735	      0.64973999	     -0.22260632	    -10.99167463	     -3.96640767	    -12.18235802	    -26.08122315	     11.18179978	     -0.07645844	      0.00000000	    -42.10382503	     -9.02226917	      0.43549184	    -50.94755865	    -12.04610797	      2.03637993	      0.00000000	    -63.12452565	      8.26778747	    -10.11654595
      5.46000000	     35.14294900	      7.61602692	     14.36064394	      1.43402162	      0.65013394	     -0.22219987	    -11.45222046	     -3.42330754	    -12.37810400	    -26.74724376	     12.14253796	      0.05924233	      0.00000000	    -41.41791962	     -9.45592390	      0.13296548	    -52.46522659	    -12.46796235	      0.54800477	      0.00000000	    -63.13547944	      8.53612257	     -9.87134066
      5.46500000	     35.32781048	      7.35821363	     14.48828377	      1.44094079	      0.65065032	     -0.22182141	    -12.00945936	     -2.92755221	    -12.61084183	    -27.25367091	     13.12164875	      0.29138559	      0.00000000	    -40.72621060	     -9.81790653	     -0.08544758	    -53.91521400	    -12.62003114	     -0.90762800	      0.00000000	    -63.14096119	      8.75033612	     -9.63885648
      5.47000000	     35.51919531	      7.10867710	     14.57935593	      1.44780176	      0.65128119	     -0.22149499	    -12.65086204	     -2.44646479	    -12.85882411	    -27.60044980	     14.06973579	      0.54745707	      0.00000000	    -40.04867342	    -10.12027900	     -0.29791072	    -55.28569266	    -12.48683398	     -2.28425366	      0.00000000	    -63.15778336	      8.94853289	     -9.37510888
      5.47500000	     35.71039429	      6.86975610	     14.61585482	      1.45461164	      0.65201661	     -0.22121430	    -13.35684864	     -1.99139167	    -13.10367882	    -27.80898731	     14.96929228	      0.81834252	      0.00000000	    -39.38715048	    -10.34403468	     -0.51767753	    -56.56532667	    -12.10118867	     -3.57955442	      0.00000000	    -63.17682809	      9.10343701	     -9.07229059
      5.48000000	     35.89633484	      6.67929630	     14.62728453	      1.46134601	      0.65286524	     -0.22096967	    -14.13552494	     -1.58802232	    -13.33007166	    -27.88036689	     15.83455196	      1.15562212	      0.00000000	    -38.72044314	    -10.47597348	     -0.69110854	    -57.76369580	    -11.53812226	     -4.79676081	      0.00000000	    -63.20074037	      9.20762647	     -8.76956806
